<?xml version="1.0" encoding="utf-8"?>
<!-- Generator: Adobe Illustrator 25.0.1, SVG Export Plug-In . SVG Version: 6.00 Build 0)  -->
<svg version="1.0" id="katman_1" xmlns="http://www.w3.org/2000/svg" xmlns:xlink="http://www.w3.org/1999/xlink" x="0px" y="0px"
	 viewBox="0 0 560 400" style="enable-background:new 0 0 560 400;" xml:space="preserve">
<style type="text/css">
	.st0{fill:#E50B14;}
</style>
<g transform="matrix(1.03093 0 0 1.03093 73.8144 45.3093)">
	<path class="st0" d="M5.3,106.4v87.3H199v-87.3L5.3,106.4z M169.5,129.7h-10.3v14.4h10.3v11.7h-10.3v14.6h10.3v11.5h-21.8V124
		l-9.2,57.9h-13.4c0,0-6.9-41-6.9-41.1c1.1,6.6-3.1,13.5-6.7,16.3l7.3,24.8h-11.3l-5.5-21.1l-2.7,0.4v20.7H77.5l-1.3-9.8h-9
		l-1.3,9.8H43.5v-30.8l-5.2,30.8h-6.1L27,151.1v30.8H15.4V118H30l5.1,33l5.3-33H55v58.7l8.8-58.7h15.3l8.5,56.7V118h11.7
		c10.5,0,15.3,7.7,16.7,10.4l-1.3-10.4h11.7l5.3,38.9L137,118h32.4v11.7L169.5,129.7z M192.7,181.9h-21.2v-63.8h11.4v52.4h9.8V181.9
		z M106.9,139.6c0,5.2-2.3,8.4-5,9.7c-0.9,0.4-1.8,0.6-2.7,0.6v-20.5h0.1C100.2,129.4,106.9,129.7,106.9,139.6z M71.6,134.6
		l3.3,27.3h-6.5L71.6,134.6z"/>
</g>
</svg>
